# xmcd
#
# Track frame offsets: 
#        150
#        16386
#        37717
#        56983
#        74608
#
# Disc length: 1249 seconds
#
# Revision: 0
# Processed by: cddbd v1.5.2PL0 Copyright (c) Steve Scherf et al.
# Submitted via: ExactAudioCopy v0.95b4
#
DISCID=3f04df05
DTITLE=Fiona Renshaw - Blood, Sweat and Tears
DYEAR=2007
DGENRE=Blues
TTITLE0=Four Letter Word
TTITLE1=Blood, Sweat and Tears
TTITLE2=Easier
TTITLE3=All I Can
TTITLE4=Home Is Where The Hatred Is
EXTD=
EXTT0=
EXTT1=
EXTT2=
EXTT3=
EXTT4=
PLAYORDER=
